<?xml version="1.0" encoding="UTF-8" standalone="no"?>
<!DOCTYPE svg PUBLIC "-//W3C//DTD SVG 1.1//EN" "http://www.w3.org/Graphics/SVG/1.1/DTD/svg11.dtd">
<svg version="1.1" xmlns="http://www.w3.org/2000/svg" xmlns:xlink="http://www.w3.org/1999/xlink" preserveAspectRatio="xMidYMid meet" viewBox="0 0 577 483" width="577" height="483"><defs><path d="M65.86 15.68C38.15 15.68 15.68 38.15 15.68 65.86C15.68 100.98 15.68 381.98 15.68 417.11C15.68 444.82 38.15 467.28 65.86 467.28C110.39 467.28 466.66 467.28 511.19 467.28C538.9 467.28 561.37 444.82 561.37 417.11C561.37 381.98 561.37 100.98 561.37 65.86C561.37 38.15 538.9 15.68 511.19 15.68C422.12 15.68 110.39 15.68 65.86 15.68Z" id="g4V4CoKcG"></path><path d="M122.64 285.15C112.2 299.91 28.62 417.96 18.17 432.72C24.74 452.78 43.6 467.28 65.86 467.28C82.01 467.28 162.79 467.28 308.19 467.28L191.22 286.1C156.69 269.46 133.83 269.15 122.64 285.15Z" id="e1UjaXq3Rg"></path><path d="M561.37 388.53C479.04 282.89 433.3 224.2 424.16 212.46C399.13 179.71 348.85 182.96 328.24 218.65C322.59 228.44 294.33 277.38 243.47 365.48L289 467.28C422.31 467.28 496.38 467.28 511.19 467.28C538.9 467.28 561.37 444.82 561.37 417.11C561.37 413.3 561.37 403.77 561.37 388.53Z" id="aM89RSVr2"></path><path d="M211.42 100.89C183.71 100.89 161.24 123.35 161.24 151.07C161.24 178.78 183.71 201.25 211.42 201.25C239.13 201.25 261.6 178.78 261.6 151.07C261.6 123.35 239.13 100.89 211.42 100.89Z" id="c5uLrr1L4M"></path><path d="M359.09 0C350.43 0 343.41 7.02 343.41 15.68C343.41 24.34 350.43 31.36 359.09 31.36C374.3 31.36 495.98 31.36 511.19 31.36C530.21 31.36 545.69 46.84 545.69 65.86C545.69 84.51 545.69 177.78 545.69 345.67C480.24 260.03 443.89 212.45 436.61 202.94C421.67 183.38 398.09 172.65 373.53 174.24C348.97 175.83 326.97 189.5 314.66 210.81C309.86 219.13 285.84 260.74 242.6 335.63C219.63 300.74 206.87 281.36 204.32 277.48C193.9 261.64 176.36 252.03 157.4 251.77C138.44 251.55 120.65 260.63 109.79 276.17C104.56 283.65 78.42 321.07 31.36 388.42C31.36 194.88 31.36 87.36 31.36 65.86C31.36 46.84 46.84 31.36 65.86 31.36C82.69 31.36 217.33 31.36 234.16 31.36C242.82 31.36 249.84 24.34 249.84 15.68C249.84 7.02 242.82 0 234.16 0C217.33 0 82.69 0 65.86 0C29.54 0 0 29.54 0 65.86C0 100.98 0 381.98 0 417.11C0 453.42 29.54 482.96 65.86 482.96C90.32 482.96 286.01 482.96 310.47 482.96C310.47 482.96 310.48 482.97 310.49 482.97C310.5 482.97 310.51 482.96 310.51 482.96C330.58 482.96 491.12 482.96 511.19 482.96C547.5 482.96 577.05 453.42 577.05 417.11C577.05 381.98 577.05 100.98 577.05 65.86C577.05 29.54 547.5 0 511.19 0C480.77 0 374.3 0 359.09 0ZM135.5 294.13C140.47 287.02 148.25 282.96 156.97 283.13C165.65 283.25 173.36 287.48 178.13 294.72C185.01 305.18 219.43 357.48 281.38 451.6C152.07 451.6 80.23 451.6 65.86 451.6C53.61 451.6 42.83 445.18 36.71 435.52C56.47 407.25 125.62 308.27 135.5 294.13ZM318.93 451.6L261.89 364.94C309.85 281.87 336.49 235.72 341.82 226.49C348.98 214.1 361.27 206.46 375.55 205.54C389.83 204.62 403.01 210.61 411.7 221.98C420.63 233.67 465.29 292.12 545.69 397.32C545.69 409.19 545.69 415.79 545.69 417.11C545.69 436.13 530.21 451.6 511.19 451.6C485.55 451.6 421.47 451.6 318.93 451.6Z" id="b52r8e3Jn"></path><path d="M309.69 15.68C309.69 11.56 308.02 7.51 305.1 4.59C302.18 1.68 298.14 0 294.01 0C289.89 0 285.84 1.68 282.93 4.59C280.01 7.51 278.33 11.56 278.33 15.68C278.33 19.8 280.01 23.85 282.93 26.77C285.84 29.68 289.89 31.36 294.01 31.36C298.14 31.36 302.18 29.68 305.1 26.77C308.02 23.85 309.69 19.8 309.69 15.68Z" id="a411mKUAko"></path><path d="M211.42 216.93C247.73 216.93 277.27 187.39 277.27 151.08C277.27 114.76 247.73 85.22 211.42 85.22C175.1 85.22 145.56 114.76 145.56 151.08C145.56 187.39 175.1 216.93 211.42 216.93ZM211.42 185.57C192.39 185.57 176.92 170.1 176.92 151.08C176.92 132.05 192.39 116.58 211.42 116.58C230.44 116.58 245.91 132.05 245.91 151.08C245.91 170.1 230.44 185.57 211.42 185.57Z" id="f31qXWsLaE"></path><path d="M259.21 195.8C259.21 203.75 259.21 267.39 259.21 275.34C259.21 282.83 265.28 288.9 272.77 288.9C280.26 288.9 286.33 282.83 286.33 275.34C286.33 267.39 286.33 203.75 286.33 195.8C286.33 188.31 280.26 182.24 272.77 182.24C265.28 182.24 259.21 188.31 259.21 195.8Z" id="a2byA5lrrC"></path><path d="M217.18 153.77C217.18 170.13 217.18 301.02 217.18 317.38C217.18 324.87 223.25 330.93 230.74 330.93C238.23 330.93 244.3 324.87 244.3 317.37C244.3 301.01 244.3 170.13 244.3 153.77C244.3 146.28 238.23 140.21 230.74 140.21C223.25 140.21 217.18 146.28 217.18 153.77Z" id="ckdb5PfsM"></path><path d="M174.7 114.45C174.7 138.67 174.7 332.47 174.7 356.69C174.7 364.18 180.77 370.25 188.26 370.25C195.75 370.25 201.82 364.18 201.82 356.69C201.82 332.47 201.82 138.67 201.82 114.45C201.82 106.96 195.75 100.89 188.26 100.89C180.77 100.89 174.7 106.96 174.7 114.45Z" id="b18yLXpmDH"></path><path d="M132.67 153.77C132.67 170.13 132.67 301.02 132.67 317.38C132.67 324.87 138.74 330.93 146.23 330.93C153.72 330.93 159.78 324.87 159.78 317.37C159.78 301.01 159.78 170.13 159.78 153.77C159.78 146.28 153.71 140.21 146.23 140.21C138.74 140.21 132.67 146.28 132.67 153.77Z" id="gjlYQT0Vg"></path><path d="M90.18 193.09C90.18 201.58 90.18 269.56 90.18 278.05C90.18 285.54 96.25 291.61 103.74 291.61C111.23 291.61 117.3 285.54 117.3 278.05C117.3 269.56 117.3 201.58 117.3 193.09C117.3 185.6 111.23 179.53 103.74 179.53C96.25 179.53 90.18 185.6 90.18 193.09Z" id="m6b1G0wwb"></path><path d="M386.21 114.45C386.21 138.67 386.21 332.47 386.21 356.69C386.21 364.18 392.28 370.25 399.77 370.25C407.26 370.25 413.33 364.18 413.33 356.69C413.33 332.47 413.33 138.67 413.33 114.45C413.33 106.96 407.26 100.89 399.77 100.89C392.28 100.89 386.21 106.96 386.21 114.45Z" id="dHTXeux4C"></path><path d="M343.73 153.77C343.73 170.13 343.73 301.02 343.73 317.38C343.73 324.87 349.8 330.93 357.28 330.93C364.77 330.93 370.84 324.87 370.84 317.37C370.84 301.01 370.84 170.13 370.84 153.77C370.84 146.28 364.77 140.21 357.28 140.21C349.8 140.21 343.73 146.28 343.73 153.77Z" id="ajb3LwGWP"></path><path d="M301.7 175.01C301.7 187.12 301.7 284.02 301.7 296.13C301.7 303.62 307.77 309.69 315.25 309.69C322.74 309.69 328.81 303.62 328.81 296.13C328.81 284.02 328.81 187.12 328.81 175.01C328.81 167.52 322.74 161.45 315.25 161.45C307.77 161.45 301.7 167.52 301.7 175.01Z" id="c3YBJgJ4G"></path><path d="M428.24 153.77C428.24 170.13 428.24 301.02 428.24 317.38C428.24 324.87 434.31 330.93 441.8 330.93C449.29 330.93 455.36 324.87 455.36 317.37C455.36 301.01 455.36 170.13 455.36 153.77C455.36 146.28 449.29 140.21 441.8 140.21C434.31 140.21 428.24 146.28 428.24 153.77Z" id="a3wpuIXqc"></path><path d="M470.72 193.09C470.72 201.58 470.72 269.56 470.72 278.05C470.72 285.54 476.79 291.61 484.28 291.61C491.77 291.61 497.84 285.54 497.84 278.05C497.84 269.56 497.84 201.58 497.84 193.09C497.84 185.6 491.77 179.53 484.28 179.53C476.79 179.53 470.72 185.6 470.72 193.09Z" id="adsnch0Lb"></path></defs><g><g><use xlink:href="#g4V4CoKcG" opacity="1" fill="#c8f5ff" fill-opacity="1"></use><g><use xlink:href="#g4V4CoKcG" opacity="1" fill-opacity="0" stroke="#000000" stroke-width="1" stroke-opacity="0"></use></g></g><g><use xlink:href="#e1UjaXq3Rg" opacity="1" fill="#a5dc69" fill-opacity="1"></use><g><use xlink:href="#e1UjaXq3Rg" opacity="1" fill-opacity="0" stroke="#000000" stroke-width="1" stroke-opacity="0"></use></g></g><g><use xlink:href="#aM89RSVr2" opacity="1" fill="#46c373" fill-opacity="1"></use><g><use xlink:href="#aM89RSVr2" opacity="1" fill-opacity="0" stroke="#000000" stroke-width="1" stroke-opacity="0"></use></g></g><g><use xlink:href="#c5uLrr1L4M" opacity="1" fill="#f5b955" fill-opacity="1"></use><g><use xlink:href="#c5uLrr1L4M" opacity="1" fill-opacity="0" stroke="#000000" stroke-width="1" stroke-opacity="0"></use></g></g><g><use xlink:href="#b52r8e3Jn" opacity="1" fill="#000000" fill-opacity="1"></use><g><use xlink:href="#b52r8e3Jn" opacity="1" fill-opacity="0" stroke="#000000" stroke-width="1" stroke-opacity="0"></use></g></g><g><use xlink:href="#a411mKUAko" opacity="1" fill="#000000" fill-opacity="1"></use><g><use xlink:href="#a411mKUAko" opacity="1" fill-opacity="0" stroke="#000000" stroke-width="1" stroke-opacity="0"></use></g></g><g><use xlink:href="#f31qXWsLaE" opacity="1" fill="#000000" fill-opacity="1"></use><g><use xlink:href="#f31qXWsLaE" opacity="1" fill-opacity="0" stroke="#000000" stroke-width="1" stroke-opacity="0"></use></g></g><g><use xlink:href="#a2byA5lrrC" opacity="1" fill="#0081fc" fill-opacity="0.9"></use><g><use xlink:href="#a2byA5lrrC" opacity="1" fill-opacity="0" stroke="#ffffff" stroke-width="5" stroke-opacity="0"></use></g></g><g><use xlink:href="#ckdb5PfsM" opacity="1" fill="#0081fc" fill-opacity="0.9"></use><g><use xlink:href="#ckdb5PfsM" opacity="1" fill-opacity="0" stroke="#ffffff" stroke-width="5" stroke-opacity="0"></use></g></g><g><use xlink:href="#b18yLXpmDH" opacity="1" fill="#0081fc" fill-opacity="0.9"></use><g><use xlink:href="#b18yLXpmDH" opacity="1" fill-opacity="0" stroke="#ffffff" stroke-width="5" stroke-opacity="0"></use></g></g><g><use xlink:href="#gjlYQT0Vg" opacity="1" fill="#0081fc" fill-opacity="0.9"></use><g><use xlink:href="#gjlYQT0Vg" opacity="1" fill-opacity="0" stroke="#ffffff" stroke-width="5" stroke-opacity="0"></use></g></g><g><use xlink:href="#m6b1G0wwb" opacity="1" fill="#0081fc" fill-opacity="0.9"></use><g><use xlink:href="#m6b1G0wwb" opacity="1" fill-opacity="0" stroke="#ffffff" stroke-width="5" stroke-opacity="0"></use></g></g><g><use xlink:href="#dHTXeux4C" opacity="1" fill="#0081fc" fill-opacity="0.9"></use><g><use xlink:href="#dHTXeux4C" opacity="1" fill-opacity="0" stroke="#ffffff" stroke-width="5" stroke-opacity="0"></use></g></g><g><use xlink:href="#ajb3LwGWP" opacity="1" fill="#0081fc" fill-opacity="0.9"></use><g><use xlink:href="#ajb3LwGWP" opacity="1" fill-opacity="0" stroke="#ffffff" stroke-width="5" stroke-opacity="0"></use></g></g><g><use xlink:href="#c3YBJgJ4G" opacity="1" fill="#0081fc" fill-opacity="0.9"></use><g><use xlink:href="#c3YBJgJ4G" opacity="1" fill-opacity="0" stroke="#ffffff" stroke-width="5" stroke-opacity="0"></use></g></g><g><use xlink:href="#a3wpuIXqc" opacity="1" fill="#0081fc" fill-opacity="0.9"></use><g><use xlink:href="#a3wpuIXqc" opacity="1" fill-opacity="0" stroke="#ffffff" stroke-width="5" stroke-opacity="0"></use></g></g><g><use xlink:href="#adsnch0Lb" opacity="1" fill="#0081fc" fill-opacity="0.9"></use><g><use xlink:href="#adsnch0Lb" opacity="1" fill-opacity="0" stroke="#ffffff" stroke-width="5" stroke-opacity="0"></use></g></g></g></svg>